<?xml version="1.0" standalone="no"?>
<!DOCTYPE svg PUBLIC "-//W3C//DTD SVG 20010904//EN"
 "http://www.w3.org/TR/2001/REC-SVG-20010904/DTD/svg10.dtd">
<svg version="1.0" xmlns="http://www.w3.org/2000/svg"
 width="800.000000pt" height="607.000000pt" viewBox="0 0 800.000000 607.000000"
 preserveAspectRatio="xMidYMid meet">

<g transform="translate(0.000000,607.000000) scale(0.100000,-0.100000)"
fill="#000000" stroke="none">
<path d="M2490 5794 c-53 -33 -97 -130 -120 -266 -10 -59 -24 -116 -30 -128
-9 -17 -8 -30 4 -61 9 -22 16 -54 16 -72 0 -104 52 -257 107 -311 57 -57 124
-40 170 44 16 27 31 50 35 50 18 0 19 -60 4 -154 -16 -92 -17 -191 -13 -1104
3 -909 2 -1004 -12 -1011 -9 -4 -159 -9 -334 -10 -176 -1 -326 -5 -335 -8 -10
-4 -29 -15 -45 -25 -24 -18 -49 -20 -255 -21 l-227 -2 -3 -62 c-2 -45 -8 -65
-22 -78 -15 -13 -20 -31 -20 -65 0 -65 -14 -75 -104 -71 -96 3 -100 -2 -106
-138 l-5 -106 -75 4 c-41 2 -85 7 -98 12 -37 14 -232 10 -277 -6 -32 -11 -47
-12 -72 -3 -27 10 -39 8 -74 -7 -23 -11 -65 -19 -93 -20 l-51 0 -3 38 c-3 29
-9 41 -28 49 -20 9 -28 8 -41 -5 -15 -15 -15 -21 -4 -53 17 -47 4 -61 -64 -70
-58 -8 -75 -18 -75 -48 0 -18 32 -150 56 -232 4 -14 -3 -36 -21 -65 -21 -33
-28 -57 -30 -103 -1 -34 -7 -71 -13 -83 -7 -12 -12 -32 -12 -45 0 -13 -9 -42
-20 -66 -18 -40 -18 -46 -5 -73 9 -17 35 -39 63 -53 26 -13 55 -33 66 -44 18
-21 18 -22 -4 -56 -30 -50 -24 -70 25 -76 36 -5 40 -8 43 -37 2 -18 -2 -41 -7
-52 -8 -15 -7 -28 3 -53 8 -18 17 -45 21 -60 3 -15 16 -38 29 -50 12 -13 33
-38 45 -55 12 -18 28 -33 35 -33 7 0 30 -13 51 -30 21 -16 45 -30 53 -30 8 0
34 -11 56 -24 23 -13 52 -27 66 -31 14 -4 39 -18 57 -31 17 -13 39 -24 48 -24
21 0 52 -17 88 -46 16 -13 36 -24 45 -24 9 0 31 -7 47 -16 17 -9 80 -42 140
-73 61 -32 119 -63 130 -69 64 -37 196 -81 241 -80 27 0 94 -3 149 -7 55 -3
114 -6 130 -5 40 2 85 2 115 1 14 -1 356 1 760 4 404 3 744 6 755 5 11 0 76 0
145 0 69 1 139 1 155 1 155 1 699 -1 850 -3 212 -2 247 -2 290 1 17 1 100 1
185 0 93 -1 166 3 183 10 16 6 44 11 64 11 19 0 47 8 61 19 15 10 41 21 57 25
17 4 51 20 75 36 25 17 49 30 55 30 5 0 33 16 62 35 29 19 77 51 106 70 29 19
56 35 60 35 5 0 27 15 50 34 57 46 78 51 110 25 27 -20 27 -23 27 -139 0 -117
0 -120 -27 -145 -26 -24 -27 -27 -10 -39 20 -15 135 -19 157 -6 10 6 8 15 -13
40 -26 30 -27 37 -27 144 0 82 4 117 14 132 11 14 13 36 9 82 -5 54 -3 66 14
85 12 12 28 36 36 53 9 17 23 37 32 44 15 12 16 35 14 174 l-4 161 75 7 c46 4
80 2 87 -4 9 -8 12 -101 10 -392 l-2 -381 39 -53 c86 -118 290 -167 446 -107
82 31 132 72 160 130 12 25 25 45 30 45 4 0 13 -14 20 -31 20 -47 89 -111 155
-144 51 -25 75 -30 158 -33 125 -5 193 18 272 89 70 64 96 133 88 234 -8 110
-8 257 0 585 5 168 8 314 8 325 0 83 2 343 4 500 2 105 3 204 2 220 -3 74 5
579 11 700 1 11 2 169 3 350 1 182 3 440 5 575 2 135 3 410 3 613 0 255 4 374
12 389 8 15 8 31 1 57 -7 24 -8 108 -3 256 7 170 6 225 -4 240 -26 42 -72 79
-135 109 -62 29 -70 30 -200 31 l-136 0 -77 -38 c-43 -21 -85 -49 -93 -63 -22
-33 -44 -30 -77 11 -113 142 -510 138 -616 -6 l-24 -32 -2 -481 c-2 -264 -4
-494 -5 -511 0 -16 -1 -77 0 -135 0 -58 0 -153 1 -211 l0 -107 -95 -153 c-98
-157 -107 -183 -81 -229 8 -14 15 -43 15 -65 0 -22 7 -69 15 -105 8 -36 14
-84 15 -107 0 -36 5 -46 35 -70 20 -15 47 -47 61 -71 23 -39 25 -50 20 -120
-7 -96 -7 -110 0 -254 5 -96 3 -126 -11 -161 -12 -33 -14 -49 -6 -71 6 -15 11
-77 11 -137 l0 -110 -56 -59 c-96 -101 -272 -254 -327 -284 -28 -15 -72 -47
-97 -70 l-46 -43 -264 -6 c-146 -4 -370 -7 -498 -7 l-233 0 -20 -35 c-12 -19
-22 -35 -22 -35 -1 -1 -75 -3 -164 -6 l-163 -6 -29 32 -29 33 -155 -2 c-167
-2 -163 -3 -182 54 l-10 30 -104 -1 c-109 -2 -121 -7 -121 -50 0 -12 -6 -26
-13 -32 -8 -7 -173 -13 -475 -17 l-462 -6 -1 188 c0 103 -3 256 -5 338 -2 83
-4 193 -4 247 l0 96 -37 7 c-21 3 -49 14 -62 24 l-23 18 3 424 c1 233 2 474 1
534 -1 245 -2 691 -2 865 -1 102 -3 316 -6 475 -5 237 -9 294 -21 314 -9 13
-24 73 -34 133 -21 124 -58 208 -114 256 -40 35 -67 39 -105 16z m4571 -2017
c-2 -5 -7 -5 -11 0 -5 4 -5 82 -2 173 l7 165 5 -165 c3 -91 3 -169 1 -173z
m-671 75 c0 -22 -7 -61 -15 -87 -9 -32 -11 -54 -5 -66 6 -10 10 -101 10 -203
0 -176 -1 -186 -19 -186 -28 0 -47 37 -54 105 -4 33 -13 94 -20 135 -20 116
-13 182 31 267 43 85 72 99 72 35z m677 -516 c-2 -229 -5 -300 -14 -304 -10
-3 -13 63 -13 306 0 170 3 312 7 316 18 17 21 -40 20 -318z m-7 -532 c0 -76
-4 -124 -10 -124 -6 0 -10 50 -10 131 0 84 4 128 10 124 6 -4 10 -58 10 -131z
m0 -354 c0 -65 -4 -121 -9 -125 -16 -9 -17 4 -13 133 5 157 22 151 22 -8z m-8
-407 c-8 -104 -23 -71 -18 40 7 130 7 132 16 72 4 -27 5 -78 2 -112z m-698 21
c-1 -65 -2 -135 -2 -154 1 -48 -3 -271 -5 -350 l-2 -65 -55 0 -55 0 -3 76 c-2
65 0 78 18 94 25 23 25 45 1 76 -10 13 -21 34 -25 46 -4 14 -18 25 -34 29 -15
3 -44 12 -65 20 -20 8 -51 14 -67 14 -35 0 -39 19 -11 52 33 38 144 151 181
184 19 17 50 48 67 68 51 59 58 47 57 -90z m694 -324 c-2 -65 -7 -110 -13
-110 -5 0 -10 7 -9 15 0 8 1 58 2 110 1 59 6 95 12 95 7 0 10 -38 8 -110z m-4
-322 c3 -46 2 -108 -3 -138 -8 -50 -9 -44 -10 60 -1 63 -4 125 -7 138 -4 12
-2 22 4 22 6 0 13 -37 16 -82z m-4 -259 c0 -10 -4 -19 -10 -19 -5 0 -10 12
-10 26 0 14 4 23 10 19 6 -3 10 -15 10 -26z m-6129 -304 c53 -34 58 -50 23
-86 -30 -31 -55 -37 -72 -16 -11 14 -11 127 0 127 5 0 27 -11 49 -25z m-123
-22 c5 -17 -26 -29 -40 -15 -6 6 -7 15 -3 22 9 14 37 9 43 -7z m4744 -21 c18
-21 54 -53 80 -71 52 -35 71 -61 62 -85 -9 -23 -32 -20 -66 9 -48 41 -62 22
-43 -57 6 -24 4 -28 -15 -28 -12 0 -35 14 -52 30 -27 27 -30 36 -25 73 4 29 0
55 -15 89 -17 39 -18 51 -8 63 20 25 46 17 82 -23z m-4469 -63 c15 -24 -16
-69 -48 -69 -29 0 -40 27 -25 64 8 22 15 27 36 24 15 -2 32 -10 37 -19z m111
-35 c11 -29 6 -72 -10 -88 -19 -20 -29 -20 -48 -1 -14 15 -14 47 0 93 5 18 51
15 58 -4z m596 -23 c5 -11 10 -37 10 -59 0 -21 11 -60 25 -88 28 -56 31 -86
10 -104 -26 -22 -49 -7 -60 37 -12 49 -27 68 -49 60 -10 -4 -16 -19 -16 -41 0
-32 -20 -66 -40 -66 -17 0 -40 32 -40 55 0 13 11 47 25 77 14 29 25 71 25 94
0 22 3 44 7 47 3 4 26 7 49 7 33 0 46 -5 54 -19z m648 -21 c1 -14 7 -44 13
-67 10 -37 9 -45 -10 -69 -11 -15 -21 -35 -21 -44 0 -10 -9 -28 -20 -41 l-20
-24 -20 24 c-11 13 -20 36 -20 51 0 29 -19 43 -45 34 -8 -4 -15 -18 -15 -34 0
-15 -8 -38 -18 -50 -16 -19 -22 -21 -40 -11 -29 16 -28 26 13 85 24 35 37 67
41 101 9 79 6 76 86 73 70 -3 73 -4 76 -28z m666 -3 c3 -12 6 -39 6 -60 0 -20
9 -54 20 -74 24 -45 25 -66 6 -83 -27 -22 -59 -8 -69 30 -18 71 -63 80 -69 14
-6 -69 -63 -73 -81 -5 -4 18 -4 69 0 114 l8 82 70 5 c88 6 102 3 109 -23z
m658 -22 c3 -22 10 -59 14 -82 5 -34 13 -47 41 -63 37 -22 42 -52 9 -58 -23
-5 -46 23 -46 54 0 14 -8 25 -20 29 -28 9 -40 -2 -40 -34 0 -33 -21 -54 -47
-49 -12 2 -21 17 -28 46 -8 38 -12 43 -35 40 -20 -2 -26 -9 -28 -33 -5 -39
-19 -55 -48 -55 -32 0 -32 33 0 74 37 50 56 93 56 129 0 18 3 37 7 41 4 4 41
5 83 4 l75 -3 7 -40z m639 24 c5 -8 9 -31 9 -52 0 -21 9 -56 21 -78 23 -46 22
-77 -3 -93 -25 -15 -48 1 -62 44 -9 28 -16 35 -36 35 -21 0 -26 -6 -30 -34
-10 -69 -72 -67 -78 2 -2 20 4 57 12 82 9 25 16 59 16 75 0 34 3 35 81 34 40
-1 64 -6 70 -15z m603 -11 c32 -50 49 -108 38 -131 -6 -12 -15 -35 -20 -52
-14 -46 -51 -41 -78 10 -25 50 -51 57 -59 18 -9 -42 -20 -58 -42 -61 -35 -5
-32 22 8 82 26 38 39 69 39 91 0 56 8 65 56 65 34 0 47 -5 58 -22z m484 -115
c2 -8 -5 -13 -17 -13 -12 0 -21 6 -21 16 0 18 31 15 38 -3z m-2960 -65 c18
-18 15 -38 -6 -38 -21 0 -42 18 -42 37 0 16 32 17 48 1z m2616 -4 c20 -20 12
-34 -19 -34 -21 0 -35 17 -35 41 0 15 37 10 54 -7z"/>
<path d="M2197 5383 c-11 -11 -8 -58 5 -71 21 -21 44 -13 76 27 26 32 29 40
16 45 -21 8 -89 8 -97 -1z"/>
</g>
</svg>
