<?xml version="1.0" standalone="no"?>
<!DOCTYPE svg PUBLIC "-//W3C//DTD SVG 20010904//EN"
 "http://www.w3.org/TR/2001/REC-SVG-20010904/DTD/svg10.dtd">
<svg version="1.0" xmlns="http://www.w3.org/2000/svg"
 width="860.000000pt" height="599.000000pt" viewBox="0 0 860.000000 599.000000"
 preserveAspectRatio="xMidYMid meet">

<g transform="translate(0.000000,599.000000) scale(0.100000,-0.100000)"
fill="#000000" stroke="none">
<path d="M4094 5213 l-19 -378 -100 -27 c-120 -33 -126 -33 -153 -10 -17 15
-52 22 -159 32 l-138 12 -38 37 c-44 41 -47 42 -301 23 l-140 -10 -65 36 c-76
42 -149 49 -194 19 -21 -14 -50 -17 -142 -17 -64 0 -125 -5 -135 -10 -32 -17
-98 -119 -122 -188 -18 -54 -23 -88 -23 -177 1 -125 21 -218 79 -353 34 -78
35 -85 24 -132 -6 -28 -16 -50 -22 -50 -5 0 -24 -13 -41 -29 -16 -16 -46 -33
-65 -38 -28 -7 -42 -20 -68 -64 -41 -69 -39 -83 15 -87 40 -3 42 -4 45 -40 3
-32 7 -38 36 -47 69 -20 34 -31 -134 -40 -107 -7 -111 -6 -117 14 -5 20 -12
21 -106 21 -99 0 -101 0 -107 -25 -4 -18 -13 -25 -30 -25 -15 0 -24 6 -24 15
0 8 -9 15 -20 15 -11 0 -20 -6 -20 -14 0 -23 -24 -26 -181 -26 -111 0 -159 -4
-186 -15 -33 -14 -37 -14 -49 2 -13 17 -15 17 -28 1 -11 -15 -30 -18 -120 -18
-64 0 -106 -4 -106 -10 0 -6 -35 -10 -85 -10 -78 0 -85 -2 -85 -20 0 -13 -7
-20 -19 -20 -11 0 -21 -4 -23 -9 -2 -5 -18 -12 -36 -16 -28 -6 -32 -4 -32 14
0 27 -43 46 -71 31 -10 -6 -19 -19 -19 -30 0 -13 -27 -40 -74 -75 -41 -31 -77
-66 -80 -78 -3 -12 -18 -38 -35 -57 -22 -27 -36 -35 -62 -35 -30 0 -34 -3 -41
-38 -4 -21 -27 -65 -49 -99 -34 -49 -43 -73 -48 -122 -5 -47 -15 -74 -44 -116
l-37 -56 17 -49 c9 -28 21 -53 27 -57 6 -4 40 -8 74 -8 l64 0 -46 -51 c-69
-77 -110 -167 -110 -243 1 -79 26 -129 99 -193 30 -26 55 -54 55 -60 0 -8 13
-13 33 -13 19 0 36 -3 39 -6 3 -3 0 -29 -8 -57 -8 -29 -14 -64 -14 -79 0 -15
-11 -44 -25 -64 -42 -62 -45 -136 -6 -186 15 -19 19 -51 24 -169 15 -333 88
-542 220 -633 126 -87 347 -86 484 3 131 85 190 213 220 485 l8 68 32 -40 c28
-35 34 -54 48 -147 34 -229 111 -417 216 -530 68 -72 119 -105 198 -129 104
-31 256 -13 391 45 110 47 242 265 305 502 17 65 19 67 50 67 18 0 52 3 77 6
44 6 46 6 57 -26 6 -18 11 -63 11 -99 0 -76 16 -142 36 -154 8 -4 14 -19 14
-33 0 -42 22 -115 36 -121 8 -3 14 -20 14 -38 0 -18 13 -62 29 -98 25 -55 33
-65 60 -70 25 -5 31 -11 31 -32 0 -31 29 -91 61 -124 28 -30 167 -94 262 -122
99 -29 287 -36 384 -16 39 9 98 28 130 44 80 38 179 139 226 231 40 76 81 217
92 317 15 141 10 131 73 144 31 7 84 26 117 41 72 35 195 52 195 28 0 -37 64
-140 118 -190 111 -102 260 -153 430 -146 90 3 106 7 173 40 116 57 225 181
278 314 12 31 15 32 89 38 153 12 375 11 380 -2 2 -7 11 -12 19 -12 12 0 14
-7 10 -29 -8 -38 19 -118 44 -132 13 -7 18 -17 14 -29 -8 -26 35 -110 57 -110
11 0 18 -7 18 -20 0 -31 108 -134 179 -169 142 -72 357 -96 515 -57 141 34
297 126 398 234 55 59 102 146 94 176 -3 12 2 28 13 41 11 11 26 43 34 72 14
45 14 53 1 64 -20 17 -17 35 10 56 18 14 25 31 30 75 5 51 4 57 -14 63 -30 10
-25 43 8 51 45 9 54 16 134 99 l77 80 237 480 c249 506 343 701 347 717 1 6
-17 17 -40 25 -53 18 -58 43 -9 43 26 0 35 5 39 21 3 11 0 22 -6 25 -7 2 -101
24 -210 48 -109 24 -200 45 -202 48 -2 2 -7 48 -11 102 l-7 99 -50 47 c-77 73
-146 111 -219 120 -95 11 -160 -1 -215 -40 -69 -48 -113 -91 -113 -111 0 -34
-16 -27 -56 24 -23 29 -86 110 -142 180 -140 176 -141 169 38 238 77 29 139
58 137 64 -2 6 -142 16 -363 26 l-359 16 -35 -24 -35 -23 -3 29 c-4 34 -2 34
-283 52 -194 13 -299 4 -324 -26 -12 -15 -133 -4 -144 13 -9 14 -132 34 -145
23 -6 -5 -28 -11 -48 -15 -29 -5 -38 -4 -38 7 0 9 -26 25 -62 38 -51 20 -81
24 -158 23 -52 0 -106 -2 -120 -4 -14 -2 -63 2 -110 9 -57 9 -127 11 -212 6
l-128 -7 0 30 c0 40 -53 86 -122 107 -79 23 -97 20 -113 -18 -8 -19 -43 -59
-79 -91 -36 -32 -66 -66 -66 -75 0 -10 -3 -21 -7 -24 -12 -12 -33 15 -33 44 0
34 -23 59 -56 59 -14 0 -38 7 -54 15 l-30 16 0 150 0 151 50 71 c30 43 50 82
50 98 0 23 5 28 38 33 68 13 114 27 107 34 -4 4 -55 7 -113 7 l-107 0 -3 75
-3 75 288 72 c158 39 313 74 343 78 67 8 100 27 100 60 0 54 -59 71 -120 33
-22 -13 -138 -44 -315 -84 -153 -35 -280 -62 -281 -61 -2 2 20 509 29 675 l4
72 -27 0 -27 0 -19 -377z"/>
</g>
</svg>
