<?xml version="1.0" standalone="no"?>
<!DOCTYPE svg PUBLIC "-//W3C//DTD SVG 20010904//EN"
 "http://www.w3.org/TR/2001/REC-SVG-20010904/DTD/svg10.dtd">
<svg version="1.0" xmlns="http://www.w3.org/2000/svg"
 width="1280.000000pt" height="640.000000pt" viewBox="0 0 1280.000000 640.000000"
 preserveAspectRatio="xMidYMid meet">
<metadata>
Created by potrace 1.15, written by Peter Selinger 2001-2017
</metadata>
<g transform="translate(0.000000,640.000000) scale(0.100000,-0.100000)"
fill="#000000" stroke="none">
<path d="M6205 6104 c-11 -3 -56 -12 -100 -20 -145 -27 -345 -93 -535 -177
-52 -23 -943 -531 -1980 -1129 l-1885 -1088 -487 0 c-327 0 -488 -3 -488 -10
0 -6 68 -94 151 -197 107 -132 148 -190 143 -202 -48 -112 -36 -258 32 -394
l25 -47 -101 -174 c-134 -232 -133 -242 15 -113 53 45 99 82 104 82 5 0 65
-70 135 -156 l126 -156 -21 -48 c-37 -83 -19 -213 51 -381 13 -30 11 -36 -71
-177 l-84 -147 -617 0 -618 0 0 -28 0 -28 483 -63 c265 -35 538 -71 607 -80
l125 -16 3 -128 3 -127 480 0 481 0 66 -140 67 -140 47 0 c27 0 48 -4 48 -8 0
-5 -5 -34 -10 -65 -29 -153 65 -334 211 -408 132 -66 278 -58 399 23 140 93
211 280 164 436 -6 22 -5 22 77 22 l84 0 0 -117 c0 -106 3 -124 26 -173 57
-121 171 -207 305 -231 166 -29 340 67 417 229 28 59 32 77 32 152 0 47 -3 97
-8 112 -7 27 -6 28 26 28 34 0 34 1 101 140 l66 140 1842 2 1842 3 39 67 39
68 69 0 69 0 0 -155 0 -155 116 0 c107 0 116 -1 109 -17 -5 -10 -14 -47 -22
-83 -38 -172 56 -354 225 -437 51 -25 67 -28 162 -28 93 0 112 3 162 27 116
54 203 166 229 296 11 54 11 74 -2 135 -9 40 -19 80 -23 90 -8 16 7 17 240 17
l248 0 82 -80 c87 -86 151 -122 244 -140 32 -6 335 -10 785 -10 l733 0 6 -32
c20 -104 115 -222 221 -274 55 -26 69 -29 165 -29 99 0 110 2 172 33 85 41
168 129 197 207 12 31 21 65 21 76 0 21 24 34 82 44 24 4 55 21 84 45 l45 40
138 0 c176 0 176 0 176 137 0 91 -1 96 -28 119 -22 18 -40 24 -78 24 l-49 0 0
375 0 376 -25 25 c-13 13 -44 33 -68 43 -108 46 -421 105 -692 131 -66 6 -139
13 -162 16 -41 5 -49 13 -298 299 -140 161 -269 305 -287 320 -40 34 -149 88
-213 106 -69 19 -788 21 -823 1 -56 -32 -57 -33 -62 -456 -5 -362 -6 -391 -22
-394 -17 -3 -18 16 -18 295 0 248 -3 303 -15 319 -12 15 -14 62 -15 247 0 253
-7 301 -52 344 -26 25 -38 29 -114 33 l-86 5 6 -29 c18 -89 26 -106 51 -106
49 0 55 -26 55 -255 0 -170 -3 -215 -15 -231 -12 -16 -14 -71 -15 -321 l0
-303 -85 0 -85 0 0 -335 0 -335 -110 0 -110 0 0 145 0 145 55 0 55 0 0 120 0
120 -747 0 -748 0 -65 -110 -64 -110 -2838 0 -2838 0 17 33 c10 19 65 115 123
215 l104 181 1886 1087 c2017 1163 2014 1162 2238 1369 192 178 285 301 403
536 l68 137 -167 7 c-283 13 -429 -6 -672 -86 -246 -82 -363 -139 -828 -408
-836 -482 -2606 -1504 -2977 -1718 -337 -194 -415 -232 -415 -203 0 15 130
237 149 253 9 7 331 195 716 417 2072 1194 3026 1745 3075 1778 79 53 242 183
337 270 99 89 202 209 271 315 56 86 186 336 178 344 -6 7 -466 13 -491 7z
m-4670 -4384 c35 -38 113 -81 171 -93 59 -11 74 -21 74 -44 0 -10 -54 -13
-236 -13 l-235 0 98 85 c54 47 101 85 104 85 3 0 14 -9 24 -20z m6696 -193
c-10 -9 -11 -8 -5 6 3 10 9 15 12 12 3 -3 0 -11 -7 -18z m-21 -37 c-6 -11 -13
-20 -16 -20 -2 0 0 9 6 20 6 11 13 20 16 20 2 0 0 -9 -6 -20z"/>
<path d="M10438 3020 c-50 -27 -78 -65 -78 -109 0 -45 8 -57 43 -70 42 -16
211 -14 252 3 33 14 35 17 35 64 0 45 -4 53 -36 82 -20 17 -47 36 -61 41 -40
15 -115 10 -155 -11z"/>
</g>
</svg>
