<?xml version="1.0" standalone="no"?>
<!DOCTYPE svg PUBLIC "-//W3C//DTD SVG 20010904//EN"
 "http://www.w3.org/TR/2001/REC-SVG-20010904/DTD/svg10.dtd">
<svg version="1.0" xmlns="http://www.w3.org/2000/svg"
 width="418.000000pt" height="239.000000pt" viewBox="0 0 418.000000 239.000000"
 preserveAspectRatio="xMidYMid meet">

<g transform="translate(0.000000,239.000000) scale(0.100000,-0.100000)"
fill="#000000" stroke="none">
<path d="M3681 2133 c-13 -2 -395 -132 -848 -289 l-824 -283 -233 63 c-310 85
-298 83 -406 50 -50 -15 -90 -30 -90 -33 0 -4 96 -42 213 -85 116 -44 216 -82
220 -86 5 -4 -18 -17 -50 -28 -374 -128 -486 -168 -528 -187 -27 -13 -72 -33
-100 -45 -27 -11 -97 -47 -155 -78 -58 -31 -108 -58 -111 -60 -4 -2 -34 66
-68 150 -34 84 -65 159 -70 167 -8 13 -18 12 -71 -4 -33 -10 -62 -21 -64 -24
-2 -3 7 -85 20 -181 13 -96 23 -186 24 -200 l0 -26 -165 20 c-161 18 -167 18
-225 1 -33 -10 -60 -21 -60 -24 0 -4 71 -24 158 -45 86 -21 174 -42 195 -47
29 -8 37 -15 37 -32 0 -24 27 -71 53 -90 16 -11 15 -29 -12 -247 -16 -129 -28
-236 -27 -238 4 -3 120 38 128 46 4 4 37 101 73 217 37 116 68 211 70 213 2 2
34 -13 73 -32 l70 -35 64 21 c34 11 65 23 68 25 3 3 -12 20 -33 38 l-39 34 36
6 c56 11 73 10 221 -19 112 -22 156 -26 218 -21 75 5 257 55 285 77 17 15 15
73 -4 89 -9 8 -35 21 -57 30 l-40 16 119 41 c66 23 244 84 397 136 l278 95
261 -81 260 -80 76 28 c41 16 77 34 79 40 4 13 -52 41 -242 121 -71 30 -134
58 -138 62 -4 5 234 90 530 191 296 100 560 194 586 207 102 51 176 154 177
244 0 97 -92 167 -231 174 -41 2 -85 1 -98 -2z"/>
</g>
</svg>
