<?xml version="1.0" standalone="no"?>
<!DOCTYPE svg PUBLIC "-//W3C//DTD SVG 20010904//EN"
 "http://www.w3.org/TR/2001/REC-SVG-20010904/DTD/svg10.dtd">
<svg version="1.0" xmlns="http://www.w3.org/2000/svg"
 width="1280.000000pt" height="640.000000pt" viewBox="0 0 1280.000000 640.000000"
 preserveAspectRatio="xMidYMid meet">
<metadata>
Created by potrace 1.15, written by Peter Selinger 2001-2017
</metadata>
<g transform="translate(0.000000,640.000000) scale(0.100000,-0.100000)"
fill="#000000" stroke="none">
<path d="M2108 5376 c-106 -31 -138 -46 -102 -46 40 -1 254 -58 286 -77 18
-11 521 -323 1118 -693 597 -370 1133 -703 1192 -739 87 -53 108 -70 108 -89
0 -13 4 -32 10 -42 12 -23 30 -18 -265 -75 -359 -69 -644 -124 -695 -135 -25
-5 -164 -32 -310 -60 -146 -28 -308 -59 -360 -70 -52 -11 -214 -42 -360 -70
-146 -28 -308 -59 -360 -70 -52 -11 -214 -42 -360 -70 -146 -28 -308 -59 -360
-70 -52 -11 -214 -42 -360 -70 -146 -28 -308 -59 -360 -70 -52 -10 -214 -42
-360 -70 -146 -28 -295 -57 -332 -65 -61 -12 -121 -42 -221 -110 -15 -10 -4
-18 82 -53 l100 -41 93 48 c88 46 106 51 338 96 135 26 344 66 465 90 121 24
351 69 510 100 160 31 344 67 410 80 66 13 239 47 385 75 146 28 330 64 410
80 427 85 563 110 567 106 3 -2 -10 -9 -29 -15 -18 -5 -198 -65 -401 -134
l-367 -124 -163 -183 -162 -184 -145 -75 c-80 -42 -151 -79 -157 -84 -7 -4
-39 -52 -71 -106 -58 -95 -60 -101 -67 -187 l-7 -90 40 -82 c28 -56 67 -112
124 -176 l83 -94 185 -75 185 -74 175 -21 c96 -12 253 -26 349 -33 l174 -11
115 -64 114 -64 131 0 c120 0 133 2 154 21 l22 22 83 -24 c148 -42 154 -44
148 -71 -27 -125 39 -265 149 -316 83 -39 156 -37 243 6 101 50 158 138 158
247 0 46 -49 157 -86 196 l-25 26 368 7 c202 4 499 11 658 16 160 5 481 12
715 15 l425 6 235 45 c221 43 247 50 435 124 215 85 190 80 505 109 58 6 152
15 210 21 58 5 200 19 315 30 116 11 255 25 310 30 55 5 171 17 258 25 409 39
479 46 571 55 l99 10 64 -57 c104 -92 112 -97 236 -149 111 -46 117 -50 117
-78 0 -43 40 -116 74 -133 57 -30 135 -11 170 41 32 49 12 144 -39 184 -42 33
-79 36 -130 12 -25 -12 -50 -18 -57 -14 -7 5 -50 34 -94 66 l-82 58 9 38 c5
20 9 40 9 44 0 14 152 30 450 48 93 6 185 17 230 29 127 34 342 75 476 91 144
17 153 20 156 43 2 16 36 -23 138 -161 l134 -183 146 3 145 3 6 45 c4 25 23
137 42 250 19 113 38 230 41 261 l6 55 -209 164 c-130 102 -207 168 -203 176
4 6 129 151 277 322 212 244 272 308 277 294 4 -9 33 -87 64 -172 31 -85 58
-157 60 -159 2 -2 133 37 141 43 1 1 -36 98 -82 215 l-85 213 99 112 c55 61
124 135 155 165 45 45 57 63 62 98 6 38 2 51 -25 94 -17 28 -31 52 -31 54 0 2
48 22 108 45 59 23 195 76 302 118 107 41 198 78 202 81 4 4 2 24 -4 45 -10
30 -16 37 -32 33 -12 -3 -180 -59 -374 -125 -279 -96 -358 -127 -373 -146 -13
-16 -50 -35 -112 -55 -75 -25 -102 -30 -144 -25 -29 4 -57 12 -62 18 -5 6 -25
51 -45 100 -26 65 -33 93 -26 106 7 13 4 32 -10 67 -15 37 -165 442 -185 501
-2 6 -10 12 -18 12 -13 0 -107 -30 -107 -34 0 -18 213 -572 222 -578 7 -4 16
-9 19 -10 6 -3 69 -158 69 -170 0 -4 -25 -14 -55 -23 -57 -16 -125 -66 -125
-91 0 -21 -47 -36 -94 -29 -35 5 -87 -10 -366 -110 -179 -64 -328 -119 -332
-123 -9 -9 17 -97 28 -96 14 2 85 24 391 124 248 80 285 94 303 120 11 15 33
32 48 38 28 10 30 8 60 -54 l32 -64 -48 0 -47 0 -549 -585 c-302 -322 -550
-585 -551 -585 0 0 -53 -11 -118 -25 l-116 -24 -358 65 c-197 35 -808 155
-1358 265 l-1000 199 -155 80 c-302 155 -356 180 -440 209 -47 16 -150 53
-230 81 l-145 52 -260 -26 c-155 -16 -320 -26 -410 -26 l-150 0 -85 54 -85 53
-3 51 c-3 45 0 52 15 52 10 0 131 22 268 49 138 27 392 77 565 111 173 33 369
72 435 85 66 13 251 49 410 80 160 31 355 69 435 85 80 16 287 56 460 90 173
33 358 69 410 80 52 11 237 47 410 80 800 156 737 141 825 195 l78 49 -54 24
c-30 13 -75 32 -100 42 l-46 19 -64 -43 c-60 -40 -76 -45 -229 -75 -91 -18
-208 -41 -260 -51 -52 -11 -214 -42 -360 -70 -146 -28 -308 -60 -360 -70 -52
-11 -214 -42 -360 -70 -146 -28 -308 -60 -360 -70 -52 -11 -214 -42 -360 -70
-146 -28 -308 -60 -360 -70 -52 -11 -237 -47 -410 -80 -358 -69 -657 -128
-873 -171 -82 -16 -154 -29 -160 -29 -7 0 -21 21 -31 46 l-19 47 -61 -7 c-52
-5 -63 -3 -76 12 -14 17 -25 18 -129 11 -63 -4 -117 -12 -120 -17 -3 -6 -537
321 -1186 726 l-1180 736 -130 26 c-200 41 -189 41 -307 6z m2774 -1866 c45 0
78 -4 78 -10 0 -5 11 -10 25 -10 16 0 25 -6 25 -15 0 -13 -40 -15 -297 -15
-289 0 -303 -1 -466 -31 -93 -16 -173 -29 -178 -27 -6 2 92 23 218 47 125 24
289 56 363 71 129 25 135 26 144 8 8 -15 22 -18 88 -18z m-839 -117 c-7 -2
-19 -2 -25 0 -7 3 -2 5 12 5 14 0 19 -2 13 -5z"/>
</g>
</svg>
