<?xml version="1.0" encoding="UTF-8" standalone="no"?>
<!DOCTYPE svg PUBLIC "-//W3C//DTD SVG 20010904//EN" "http://www.w3.org/TR/2001/REC-SVG-20010904/DTD/svg10.dtd">
<svg version="1.0" xmlns="http://www.w3.org/2000/svg" width="1280.000000pt" height="640.000000pt" viewBox="0 0 1280.000000 640.000000" preserveAspectRatio="xMidYMid meet">
<metadata>
Created by potrace 1.15, written by Peter Selinger 2001-2017
</metadata>
<g transform="translate(0.000000,640.000000) scale(0.100000,-0.100000)" fill="#000000" stroke="none">
<path d="M7300 5969 c-179 -49 -374 -103 -435 -119 -120 -33 -268 -73 -440 -120 -60 -17 -159 -44 -220 -60 -60 -16 -157 -43 -215 -59 -58 -15 -352 -96 -655 -179 -302 -83 -768 -209 -1035 -282 -267 -72 -548 -149 -625 -170 -139 -39 -655 -180 -750 -205 -81 -21 -1035 -282 -1210 -330 -88 -24 -236 -64 -330 -89 -160 -43 -266 -72 -500 -136 -55 -15 -154 -42 -220 -60 -66 -18 -165 -45 -220 -60 -55 -15 -154 -42 -220 -60 -66 -18 -144 -39 -173 -47 -28 -8 -52 -17 -52 -21 0 -7 79 -283 205 -717 37 -126 70 -233 74 -237 3 -4 40 3 81 16 41 13 112 35 158 49 l83 26 27 -46 c15 -25 73 -105 129 -178 l102 -132 53 14 c29 7 141 36 248 63 107 28 203 53 212 56 14 4 17 -3 20 -43 l3 -48 258 -3 257 -2 0 -676 0 -675 25 -49 25 -49 0 -411 0 -411 -25 -50 c-14 -27 -23 -54 -20 -59 4 -6 71 -10 156 -10 119 0 151 3 155 14 3 8 -6 37 -20 65 l-26 50 0 403 0 403 25 53 25 54 0 380 c0 209 4 378 9 376 8 -3 55 -56 124 -140 l39 -47 -67 -146 -66 -146 3 -102 3 -102 72 -3 72 -3 3 -37 c3 -37 3 -37 51 -40 37 -2 47 -7 43 -17 -31 -80 -46 -231 -35 -342 34 -333 268 -611 596 -705 103 -30 313 -32 413 -4 272 75 482 273 572 540 40 118 50 287 24 414 -9 45 -19 89 -22 97 -5 13 24 15 230 15 130 0 236 -2 236 -3 0 -2 -9 -39 -20 -82 -27 -107 -27 -273 0 -381 75 -295 296 -519 590 -600 100 -28 310 -26 413 4 292 84 515 316 583 610 28 118 17 335 -21 435 -7 16 28 17 643 17 l649 0 69 -55 69 -55 98 0 97 0 0 -400 0 -401 -25 -50 c-14 -27 -23 -54 -20 -59 8 -13 302 -13 310 0 3 5 -6 32 -20 59 l-25 50 0 311 0 310 744 0 c583 0 746 3 753 12 5 7 34 70 64 140 l54 128 154 0 c142 0 153 -1 146 -17 -42 -108 -45 -352 -5 -478 46 -145 127 -274 234 -371 325 -298 828 -281 1132 38 109 113 182 252 215 403 17 83 15 255 -5 338 -9 38 -16 70 -16 73 0 2 152 4 338 4 l337 0 368 368 367 367 0 84 0 84 -619 866 c-341 476 -625 872 -632 879 -10 9 -198 12 -871 12 -729 0 -858 2 -858 14 0 27 145 203 271 328 88 88 129 137 134 158 6 26 11 30 41 30 69 0 74 9 73 118 -1 106 -9 148 -28 144 -7 -1 -101 2 -209 8 -284 14 -1128 47 -1332 51 -118 3 -113 -14 20 -69 131 -54 422 -160 600 -219 l135 -44 199 7 200 7 -167 -147 c-158 -138 -217 -176 -203 -128 2 9 12 57 21 107 l17 90 -27 22 c-29 26 -52 28 -89 12 -22 -10 -27 -23 -41 -108 -9 -53 -18 -102 -20 -108 -3 -9 -27 -13 -72 -13 -37 0 -77 -3 -89 -6 -17 -4 -31 11 -87 96 -82 122 -122 144 -172 94 -27 -28 -17 -66 40 -151 30 -46 55 -86 55 -90 -1 -5 -19 -21 -41 -36 -35 -24 -48 -28 -102 -25 -56 3 -62 5 -67 28 l-6 25 -262 3 -262 2 0 -110 0 -110 28 -1 c15 -1 114 -4 221 -8 l193 -6 -253 -106 -254 -106 -3 -642 -2 -641 -155 0 -155 0 0 105 0 105 -105 0 -104 0 -3 133 -3 132 -60 3 c-54 3 -65 0 -103 -28 -66 -48 -102 -111 -102 -182 l0 -58 -210 0 -209 0 -23 30 c-22 30 -22 30 -124 30 l-102 0 -48 -40 -48 -40 -326 -2 -325 -3 -3 -32 -3 -33 -560 0 c-551 0 -559 0 -559 20 0 19 8 20 233 22 l232 3 3 77 3 76 60 -41 61 -42 592 -3 591 -2 60 35 c33 20 72 48 88 63 l27 26 0 177 0 176 -46 42 c-25 24 -68 53 -97 67 -50 23 -60 24 -279 24 l-228 0 0 40 0 40 -477 -2 -478 -3 -3 -312 -2 -313 -188 0 -188 0 -22 30 c-18 23 -22 43 -22 99 0 64 -2 72 -25 87 -25 16 -25 18 -25 163 l0 147 -47 15 -46 14 214 63 c118 34 414 120 659 191 245 71 648 188 895 259 248 72 653 189 901 261 248 72 456 131 462 131 30 0 18 52 -38 162 -17 33 -29 63 -26 65 3 3 62 20 132 39 70 18 128 35 130 37 2 2 -45 143 -105 313 -60 170 -111 318 -113 329 -2 15 7 22 45 33 27 8 47 19 47 27 0 8 -12 45 -26 82 -14 38 -70 191 -125 341 -121 333 -125 342 -141 341 -7 0 -159 -41 -338 -90z m-1830 -2649 c-44 -37 -50 -37 -50 0 0 29 2 30 42 30 l42 0 -34 -30z"/>
</g>
</svg>