<?xml version="1.0" standalone="no"?>
<!DOCTYPE svg PUBLIC "-//W3C//DTD SVG 20010904//EN"
 "http://www.w3.org/TR/2001/REC-SVG-20010904/DTD/svg10.dtd">
<svg version="1.0" xmlns="http://www.w3.org/2000/svg"
 width="800.000000pt" height="713.000000pt" viewBox="0 0 800.000000 713.000000"
 preserveAspectRatio="xMidYMid meet">

<g transform="translate(0.000000,713.000000) scale(0.100000,-0.100000)"
fill="#000000" stroke="none">
<path d="M5295 6624 c-151 -17 -268 -47 -373 -96 -73 -33 -210 -156 -281 -252
-52 -70 -141 -232 -141 -257 0 -9 -7 -33 -15 -53 -10 -24 -18 -85 -21 -179 -5
-127 -4 -148 15 -201 12 -33 21 -78 21 -102 0 -24 4 -45 9 -48 4 -3 14 -27 21
-53 7 -27 17 -52 21 -58 5 -5 9 -18 9 -28 0 -56 220 -417 290 -476 27 -23 74
-78 104 -124 30 -45 67 -97 82 -115 27 -33 27 -34 15 -97 -14 -67 -8 -91 27
-117 26 -19 62 -73 62 -93 0 -14 -5 -16 -22 -10 -25 9 -76 10 -155 4 -50 -4
-53 -3 -88 38 -22 26 -47 44 -67 49 -18 3 -43 13 -55 21 -14 9 -33 13 -48 9
-34 -9 -115 12 -142 36 -19 18 -25 19 -57 7 -29 -11 -43 -11 -71 0 -19 6 -67
15 -107 18 -40 3 -82 12 -93 18 -11 7 -48 16 -81 19 -51 6 -65 4 -79 -10 -27
-28 -95 -122 -95 -133 0 -6 -5 -21 -11 -34 -10 -21 -20 -25 -77 -31 -36 -4
-72 -12 -80 -19 -8 -6 -37 -14 -66 -18 -28 -4 -91 -16 -141 -29 -49 -12 -121
-27 -160 -35 -115 -21 -187 -36 -245 -50 -70 -17 -145 -32 -242 -50 -42 -7
-86 -19 -97 -24 -11 -6 -35 -11 -54 -11 -19 0 -54 -7 -77 -15 -23 -8 -53 -15
-66 -15 -13 0 -44 -7 -70 -16 -43 -14 -52 -14 -98 0 -32 10 -90 15 -155 16
-96 0 -108 2 -142 26 -30 21 -41 24 -58 15 -11 -6 -31 -11 -45 -11 -14 0 -27
-4 -30 -9 -3 -4 -35 -11 -72 -15 -37 -4 -82 -13 -102 -21 -19 -8 -42 -15 -51
-15 -9 0 -29 -7 -46 -16 -16 -9 -51 -16 -77 -15 -72 1 -82 -14 -74 -118 4 -48
12 -92 20 -100 10 -12 12 -38 6 -111 -4 -52 -10 -102 -14 -111 -4 -9 0 -33 8
-54 9 -21 16 -40 16 -44 0 -3 -39 -7 -88 -8 -79 -1 -84 0 -50 10 44 14 88 73
88 119 0 17 5 48 12 69 9 32 8 51 -6 106 -10 38 -25 85 -33 105 -9 20 -13 44
-10 52 10 25 -3 46 -27 46 -30 0 -48 -14 -41 -31 3 -9 -3 -23 -14 -33 -19 -17
-20 -17 -32 6 -12 23 -28 38 -41 38 -5 0 -8 -22 -8 -49 0 -60 -20 -83 -50 -56
-21 19 -40 13 -40 -14 0 -9 -6 -23 -12 -29 -14 -14 -31 -158 -29 -241 1 -34 9
-66 20 -85 23 -37 18 -82 -10 -89 -10 -3 -34 -1 -53 3 -25 5 -41 4 -53 -6 -11
-8 -44 -13 -83 -14 -62 0 -191 -35 -275 -75 -30 -14 -85 -75 -85 -94 0 -15
-29 -41 -46 -41 -8 0 -19 11 -24 25 -5 14 -12 25 -15 25 -3 0 -27 -12 -55 -27
-32 -19 -50 -35 -50 -48 -1 -11 -4 -74 -8 -140 -8 -139 -7 -152 20 -161 13 -4
18 -12 15 -25 -3 -11 3 -23 18 -33 20 -13 22 -21 19 -93 -5 -101 -14 -154 -29
-173 -8 -10 -10 -38 -7 -83 4 -60 7 -70 28 -79 17 -8 24 -19 24 -39 0 -19 6
-30 20 -34 12 -4 20 -15 20 -29 0 -22 -5 -24 -61 -28 -75 -5 -89 -20 -89 -94
0 -67 15 -79 95 -79 92 0 117 -34 79 -106 -12 -24 -13 -34 -4 -45 9 -9 9 -22
2 -42 -6 -17 -6 -47 -1 -77 5 -28 11 -72 15 -100 7 -57 39 -155 67 -202 34
-59 58 -67 212 -73 104 -4 132 -8 107 -14 -27 -7 -52 -30 -52 -49 0 -23 185
-39 252 -22 23 6 32 2 55 -24 15 -17 37 -31 48 -31 11 0 42 -7 69 -15 105 -32
224 -6 289 63 16 16 49 38 73 47 28 11 44 23 44 34 0 9 7 26 15 37 9 12 14 44
15 92 0 76 9 88 36 47 26 -40 75 -63 146 -71 93 -9 147 1 214 43 78 47 114 58
114 34 0 -21 -30 -51 -52 -51 -9 0 -21 -6 -27 -14 -15 -18 0 -52 26 -60 17 -5
112 -6 278 -3 l79 2 7 -32 c3 -18 11 -39 16 -45 5 -7 16 -39 23 -71 7 -32 17
-60 22 -63 4 -3 8 -23 8 -46 0 -30 12 -60 47 -120 78 -131 94 -145 193 -167
174 -39 181 -40 265 -26 58 9 95 22 135 46 57 36 124 97 152 139 l17 25 0 -33
c1 -24 9 -40 29 -57 16 -13 32 -41 39 -68 9 -34 19 -47 42 -56 16 -7 43 -28
60 -47 18 -19 38 -34 45 -34 7 0 25 -9 40 -21 33 -26 140 -49 226 -49 225 2
358 60 459 202 27 37 41 67 41 88 0 42 24 85 59 106 26 16 29 23 35 93 10 119
17 161 29 161 7 0 8 -32 4 -95 -6 -91 -6 -96 18 -121 25 -27 25 -28 21 -192
l-4 -164 -45 -45 c-26 -26 -67 -54 -98 -67 -45 -18 -55 -26 -57 -49 -7 -61 27
-69 277 -67 153 1 180 3 223 22 33 14 48 26 48 39 0 21 -57 61 -113 79 -25 8
-39 19 -43 35 -3 13 -18 29 -34 35 -37 15 -39 23 -29 100 6 39 6 75 0 91 -6
17 -6 43 0 68 6 25 5 50 -1 67 -9 22 -7 31 10 49 15 16 20 35 20 78 0 31 3 58
8 60 4 3 22 2 41 0 29 -5 36 -12 56 -57 13 -29 30 -58 40 -66 9 -8 30 -33 45
-55 33 -48 139 -116 210 -135 61 -17 190 -18 272 -2 92 17 179 63 220 114 18
24 59 68 91 100 52 51 57 61 57 99 0 30 6 50 22 66 20 22 21 27 10 70 -12 42
-11 48 8 68 27 29 25 48 -9 87 -21 25 -29 46 -33 86 -6 60 5 73 47 54 26 -12
56 -3 107 31 37 26 48 15 41 -41 -3 -26 0 -65 6 -87 9 -35 8 -44 -8 -66 -21
-28 -19 -51 14 -139 12 -33 17 -85 19 -195 l2 -150 -39 -48 c-21 -26 -49 -50
-62 -53 -12 -3 -37 -21 -55 -39 l-33 -34 34 -21 c32 -20 44 -21 219 -17 193 4
260 17 260 51 0 20 -68 66 -97 66 -13 0 -32 9 -42 21 -10 12 -23 25 -27 30 -5
6 -17 15 -26 22 -25 18 -29 337 -4 382 12 22 15 45 11 85 -3 30 -7 97 -10 147
-4 91 -4 93 20 99 13 3 28 3 34 0 5 -3 21 -2 35 4 24 9 26 14 26 78 0 89 -17
116 -70 109 -21 -2 -43 -1 -50 3 -18 11 -5 39 25 50 25 10 31 35 25 107 -1 12
8 30 19 40 14 12 19 24 15 40 -4 15 0 31 9 41 8 9 31 49 50 87 79 161 158 310
172 325 8 9 15 31 15 48 0 27 -4 32 -25 32 -19 0 -31 -13 -60 -61 -19 -33 -35
-66 -35 -73 0 -7 -18 -42 -40 -79 -22 -36 -40 -69 -40 -72 0 -4 -8 -19 -19
-33 -10 -15 -24 -45 -31 -67 -17 -53 -21 -59 -31 -44 -4 7 -5 34 -2 60 8 64
-2 99 -27 99 -25 0 -40 36 -40 93 0 47 7 60 33 70 14 5 20 2 24 -13 7 -25 33
-26 33 -1 0 10 -9 21 -20 24 -22 6 -26 27 -9 60 9 18 9 20 -2 10 -14 -14 -79
-18 -79 -6 0 4 12 17 28 29 24 20 25 25 15 43 -16 25 -17 57 -3 66 13 8 13 88
0 101 -5 5 -13 27 -18 49 l-8 40 -84 3 c-93 3 -101 -1 -98 -58 1 -20 -2 -42
-6 -48 -13 -21 -36 6 -36 42 -1 27 -2 29 -13 15 -8 -11 -32 -18 -66 -20 l-53
-4 -21 50 c-12 28 -26 57 -32 65 -28 43 -75 146 -89 194 -12 39 -25 61 -46 76
-45 32 -40 54 11 47 39 -5 40 -4 35 18 -4 16 14 62 64 160 39 76 70 146 70
156 0 11 -16 29 -39 43 -50 32 -57 43 -37 65 9 10 16 34 16 54 0 29 4 37 18
37 20 0 62 41 81 78 14 27 61 30 117 5 22 -9 57 -20 79 -24 22 -4 65 -13 95
-19 30 -6 85 -18 123 -27 58 -13 84 -14 195 -4 179 17 380 75 456 132 23 16
65 47 94 69 72 52 182 157 182 173 0 8 12 24 26 38 28 26 74 119 74 151 0 10
7 32 15 48 8 15 19 69 25 119 5 49 14 101 19 114 6 14 7 28 4 31 -3 3 -10 41
-14 83 -14 128 -21 177 -29 188 -5 6 -11 28 -15 50 -4 22 -21 69 -36 104 -16
35 -29 69 -29 76 0 16 -128 265 -149 290 -10 11 -32 44 -50 73 -30 48 -100
138 -144 187 -65 72 -69 80 -64 112 5 26 1 35 -14 43 -10 6 -19 21 -19 33 0
13 -9 40 -20 62 -11 22 -20 52 -20 68 0 16 -14 50 -31 75 -25 37 -29 52 -24
80 6 34 6 34 -22 28 -45 -11 -87 -7 -193 18 -36 9 -99 16 -141 16 -84 0 -102
5 -259 82 -141 69 -190 90 -310 131 -152 52 -462 95 -585 81z m1286 -394 c28
-16 23 -32 -8 -28 -17 2 -29 10 -31 21 -4 19 10 22 39 7z m203 -167 c11 -27
-13 -42 -30 -19 -19 27 -18 36 5 36 10 0 22 -8 25 -17z m-1054 -832 c0 -5 -7
-15 -16 -22 -12 -10 -14 -23 -9 -54 5 -32 4 -38 -6 -27 -14 13 -17 66 -6 95 6
17 37 24 37 8z m0 -142 c0 -6 -4 -7 -10 -4 -5 3 -10 11 -10 16 0 6 5 7 10 4 6
-3 10 -11 10 -16z m236 -57 c-8 -9 -19 -13 -22 -9 -10 9 16 38 28 31 6 -4 4
-13 -6 -22z m-1713 -635 c81 -11 90 -14 103 -39 13 -25 12 -28 -6 -38 -14 -8
-26 -8 -41 1 -20 10 -64 8 -120 -6 -23 -6 -27 -3 -35 27 -9 30 -13 33 -47 31
-41 -3 -42 -1 -26 29 9 17 17 19 47 14 21 -4 77 -12 125 -19z m-193 -62 c0
-16 -6 -25 -15 -25 -15 0 -21 31 -8 43 13 14 23 6 23 -18z m418 17 c21 -14 3
-42 -27 -42 -32 0 -52 17 -44 36 6 15 50 19 71 6z m201 -31 c12 -8 12 -12 2
-25 -23 -28 -111 -13 -111 19 0 11 12 15 48 15 26 0 53 -4 61 -9z m99 -89 c2
-7 -3 -12 -12 -12 -9 0 -16 7 -16 16 0 17 22 14 28 -4z m47 -22 c-3 -5 -10
-10 -16 -10 -5 0 -9 5 -9 10 0 6 7 10 16 10 8 0 12 -4 9 -10z m-2608 -285 c-2
-5 -20 -11 -40 -13 -35 -3 -37 -2 -37 27 0 46 29 58 57 23 13 -15 21 -31 20
-37z m-143 29 c11 -28 -99 -145 -171 -183 -33 -17 -34 -15 -31 37 l3 47 45 3
c80 6 98 47 25 58 -75 11 -52 34 35 34 27 0 52 5 55 10 9 15 32 12 39 -6z
m-594 -554 c0 -10 -31 -23 -38 -15 -8 7 19 35 29 29 5 -3 9 -9 9 -14z m120
-161 c0 -18 -2 -19 -15 -9 -8 7 -15 16 -15 21 0 5 7 9 15 9 9 0 15 -9 15 -21z
m-941 -173 c6 -7 22 -11 36 -8 22 4 25 1 25 -22 0 -15 -7 -43 -15 -63 -8 -19
-15 -57 -15 -82 0 -66 -27 -141 -50 -141 -29 0 -34 19 -12 43 18 19 20 34 19
121 -2 93 -4 99 -30 122 -25 21 -25 24 -9 33 24 14 38 13 51 -3z m254 -17 c-6
-81 -26 -206 -35 -216 -21 -26 -68 -8 -68 26 0 8 7 22 15 31 10 11 16 42 18
91 2 67 4 75 27 86 33 17 45 11 43 -18z m-103 -29 c0 -5 -4 -10 -10 -10 -5 0
-10 5 -10 10 0 6 5 10 10 10 6 0 10 -4 10 -10z m5021 -57 c12 -33 4 -73 -15
-73 -17 0 -26 22 -26 66 0 42 26 47 41 7z m67 -130 c7 -11 4 -26 -10 -50 -25
-41 -32 -41 -48 -3 -11 26 -10 33 5 50 22 24 41 25 53 3z m-4404 -2 c3 -4 3
-11 0 -14 -8 -8 -34 3 -34 14 0 11 27 12 34 0z m86 -11 c0 -5 -12 -10 -27 -9
-25 0 -26 1 -8 9 27 12 35 12 35 0z m4508 -1 c-2 -6 -8 -10 -13 -10 -5 0 -11
4 -13 10 -2 6 4 11 13 11 9 0 15 -5 13 -11z m-4641 -34 c-7 -16 -37 -21 -37
-5 0 10 32 31 39 25 2 -2 1 -11 -2 -20z m1073 -1271 c0 -14 -4 -23 -10 -19 -5
3 -10 15 -10 26 0 10 5 19 10 19 6 0 10 -12 10 -26z m40 -44 c0 -5 -4 -10 -10
-10 -5 0 -10 5 -10 10 0 6 5 10 10 10 6 0 10 -4 10 -10z"/>
</g>
</svg>
