<?xml version="1.0" encoding="UTF-8" standalone="no"?>
<!DOCTYPE svg PUBLIC "-//W3C//DTD SVG 20010904//EN" "http://www.w3.org/TR/2001/REC-SVG-20010904/DTD/svg10.dtd">
<svg version="1.0" xmlns="http://www.w3.org/2000/svg" width="1280.000000pt" height="640.000000pt" viewBox="0 0 1280.000000 640.000000" preserveAspectRatio="xMidYMid meet">
<metadata>
Created by potrace 1.15, written by Peter Selinger 2001-2017
</metadata>
<g transform="translate(0.000000,640.000000) scale(0.100000,-0.100000)" fill="#000000" stroke="none">
<path d="M10075 5043 c-2 -280 -8 -610 -12 -735 l-8 -227 -42 -30 c-52 -38 -112 -43 -120 -11 -5 20 -11 20 -657 16 -358 -2 -664 -4 -680 -5 -41 -2 -116 36 -116 59 0 10 5 22 10 25 15 9 12 61 -5 75 -8 7 -35 11 -67 8 l-53 -3 -1 74 c-1 63 -4 76 -20 82 -11 3 -23 4 -29 0 -5 -3 -105 -4 -221 -2 -182 3 -216 1 -244 -14 -17 -9 -46 -17 -64 -17 -78 0 -245 10 -255 16 -20 13 -12 25 22 34 24 6 35 16 43 42 6 19 21 38 33 44 17 7 21 15 17 32 -15 58 -26 75 -56 81 -18 3 -44 21 -64 44 -29 35 -38 39 -79 39 -25 0 -49 5 -52 10 -3 6 -22 10 -41 10 -45 0 -50 -16 87 267 97 202 119 258 90 227 -5 -5 -60 -116 -122 -246 -62 -131 -118 -238 -124 -238 -7 0 -20 9 -30 21 -18 19 -27 20 -145 14 -69 -3 -269 -10 -445 -15 -492 -14 -543 -18 -595 -43 -44 -21 -58 -22 -525 -27 l-480 -5 -3 -22 -3 -23 348 0 c410 0 608 -12 667 -41 27 -13 61 -19 108 -19 66 0 68 -1 68 -25 0 -30 24 -44 89 -52 l49 -6 4 -77 c1 -43 5 -80 8 -82 3 -2 62 -2 133 0 l127 3 0 61 0 61 31 -7 c17 -3 83 -6 145 -6 85 0 114 -3 114 -12 0 -63 47 -134 119 -180 l44 -28 -2 -67 c-1 -38 -4 -75 -6 -83 -9 -27 -113 -49 -265 -55 -80 -4 -154 -7 -165 -8 -17 -2 -21 6 -25 50 -6 58 -22 79 -123 164 l-58 49 -280 0 -279 0 0 -160 c0 -159 0 -160 -22 -160 -63 0 -1351 -91 -1359 -96 -5 -3 -32 -39 -59 -80 l-51 -74 -214 0 -214 0 -37 -35 -37 -35 -201 0 c-210 0 -226 -3 -226 -43 0 -17 -8 -18 -133 -13 -150 5 -182 8 -193 19 -4 4 -15 7 -24 7 -9 0 -29 13 -45 30 l-29 30 -251 0 -251 0 -44 -45 c-24 -25 -50 -45 -57 -45 -7 0 -21 -4 -31 -9 -60 -30 -100 -35 -342 -41 -575 -17 -1621 -30 -1700 -23 l-85 8 -3 38 c-4 44 -10 45 -126 18 -80 -19 -96 -30 -96 -67 0 -13 -8 -24 -20 -27 -18 -5 -20 -14 -20 -96 l0 -91 100 0 c98 0 101 -1 110 -25 9 -24 13 -25 95 -25 67 0 87 3 91 15 5 13 121 15 959 15 826 0 954 -2 958 -15 9 -22 802 -23 811 0 3 9 18 15 34 15 16 0 35 7 42 15 10 12 42 15 166 15 97 0 155 -4 159 -11 16 -25 58 -30 111 -13 76 24 412 18 441 -8 15 -14 42 -18 123 -20 l104 -3 19 -97 c14 -70 24 -99 36 -102 9 -3 120 -24 246 -46 287 -50 285 -50 285 -60 0 -5 -17 -14 -37 -20 -21 -7 -53 -21 -70 -32 l-33 -20 0 35 c0 56 -17 65 -115 64 -53 0 -90 4 -97 11 -7 7 -41 12 -78 12 -56 0 -69 -4 -93 -25 -21 -20 -27 -35 -27 -65 l0 -40 -121 0 -121 0 -50 -45 -50 -45 -637 0 c-360 0 -683 -4 -745 -10 -147 -14 -225 -42 -321 -114 -8 -6 -26 2 -53 23 -46 37 -85 42 -144 17 -21 -9 -54 -16 -73 -16 -27 0 -44 -8 -66 -29 -52 -53 -36 -137 48 -237 l42 -51 -50 -59 -50 -59 38 -32 c21 -18 40 -33 43 -32 3 0 25 25 50 54 24 30 47 55 51 55 9 0 207 -245 232 -288 12 -20 29 -43 39 -50 11 -8 18 -26 18 -46 0 -43 86 -168 128 -185 16 -7 35 -26 43 -44 18 -39 137 -107 189 -107 27 0 38 -5 45 -22 13 -29 151 -108 188 -108 19 0 36 -9 49 -25 28 -36 172 -107 201 -100 18 5 26 1 34 -17 14 -32 138 -100 188 -103 29 -2 42 -8 48 -23 12 -27 156 -102 195 -102 20 0 35 -8 45 -23 24 -37 168 -108 203 -101 23 4 34 0 53 -20 23 -24 30 -26 118 -26 52 0 104 5 115 11 15 8 26 8 42 -1 15 -8 56 -10 122 -6 54 2 107 5 117 4 21 0 221 0 245 0 9 1 63 -2 119 -4 66 -4 109 -1 123 6 16 9 25 9 35 0 9 -8 48 -10 117 -6 126 6 112 6 232 0 70 -4 107 -2 123 7 18 10 26 10 35 1 15 -15 192 -16 219 -1 15 7 24 7 34 -1 9 -8 48 -10 117 -6 125 6 111 6 235 0 66 -4 109 -1 123 6 16 9 25 9 35 0 9 -8 48 -10 117 -6 125 6 111 6 236 0 73 -4 108 -2 118 7 12 9 20 9 38 0 15 -9 54 -11 122 -7 54 2 107 5 117 4 9 0 64 0 122 0 58 0 114 0 125 0 127 0 243 0 258 0 9 1 63 -2 120 -4 69 -4 108 -2 117 6 10 9 19 9 35 0 14 -7 57 -10 123 -6 56 2 110 5 120 4 9 0 64 0 122 0 134 0 125 0 255 0 61 0 117 -1 125 -1 8 0 65 1 125 1 130 0 121 0 255 0 58 0 114 0 125 0 11 0 70 0 130 0 61 0 119 0 130 0 11 0 67 0 125 0 58 0 113 0 123 0 9 1 62 -2 116 -4 68 -4 107 -2 122 7 18 9 26 9 38 0 10 -9 45 -11 118 -7 125 6 111 6 235 0 67 -4 109 -1 124 6 15 9 24 9 32 1 14 -14 192 -14 219 0 14 8 23 8 31 0 7 -7 53 -11 114 -11 102 0 102 0 125 30 17 24 29 30 58 30 42 0 168 80 185 118 6 15 18 22 36 22 33 0 178 97 190 127 6 17 16 23 39 23 37 0 175 89 185 120 4 13 15 20 33 20 36 0 181 96 188 125 4 16 16 25 37 29 41 8 153 124 163 168 3 17 19 43 35 57 16 15 35 44 42 66 l14 40 90 3 c71 2 93 0 103 -13 15 -18 43 -19 72 -4 16 9 24 7 41 -9 50 -45 93 -52 152 -28 46 20 75 69 75 128 0 39 -5 52 -33 81 -21 23 -46 38 -70 42 -44 8 -46 23 -19 120 l17 60 95 0 95 0 3 -37 c3 -37 4 -38 43 -38 l39 0 0 299 0 298 -45 42 c-24 22 -49 41 -54 41 -5 0 -14 15 -20 33 -6 17 -21 39 -33 48 l-21 16 31 19 c35 20 62 68 62 109 0 39 -24 78 -67 108 -35 24 -49 27 -119 27 -68 0 -84 3 -99 20 -17 19 -31 20 -227 20 -149 0 -216 -4 -231 -12 -17 -10 -210 -14 -827 -18 -677 -5 -825 -9 -930 -23 -69 -9 -327 -37 -574 -62 l-450 -46 -68 -57 c-110 -91 -112 -92 -208 -92 l-85 1 60 55 c33 30 70 62 82 70 13 10 163 36 410 73 673 101 630 96 669 82 35 -13 37 -12 92 32 61 47 74 77 48 106 -22 25 -10 51 23 51 14 0 156 5 315 12 l290 12 40 31 c22 17 47 43 56 58 14 25 13 30 -2 58 -16 27 -18 59 -18 245 l0 214 -45 0 c-25 0 -45 -4 -45 -10 0 -6 -105 -10 -295 -10 -280 0 -295 1 -295 18 0 22 -22 43 -67 66 l-33 17 0 224 c0 138 -4 226 -10 230 -6 4 -10 185 -10 511 0 323 -4 504 -10 504 -6 0 -11 -185 -15 -507z m-7863 -2495 c14 -15 15 -24 7 -39 -15 -28 -35 -33 -69 -19 -23 10 -30 19 -30 41 0 50 55 60 92 17z m9018 -423 c-10 -27 -53 -60 -58 -45 -2 5 9 36 23 67 27 57 28 58 36 30 4 -16 4 -39 -1 -52z m-7361 -356 c-12 -17 -28 -33 -36 -36 -22 -8 -36 12 -29 41 6 23 12 26 47 26 l40 0 -22 -31z m1251 -4 c-19 -19 -39 -35 -46 -35 -13 0 -54 47 -54 61 0 5 30 9 67 9 l67 0 -34 -35z m1030 5 c-32 -45 -39 -45 -78 -6 l-37 36 68 0 68 0 -21 -30z m1000 -5 c-19 -19 -39 -35 -46 -35 -13 0 -54 47 -54 61 0 5 30 9 67 9 l67 0 -34 -35z m999 0 c-40 -40 -56 -39 -83 5 l-17 30 68 0 68 0 -36 -35z m1011 27 c0 -5 -14 -21 -30 -37 l-30 -29 -38 37 -37 37 68 0 c37 0 67 -4 67 -8z m645 -6 c-11 -8 -25 -12 -32 -9 -20 8 -4 23 25 23 24 0 25 -1 7 -14z m300 -16 c-16 -16 -31 -30 -34 -29 -3 0 -16 13 -29 30 l-24 29 58 0 58 0 -29 -30z m729 5 c21 -32 21 -31 -16 -44 -37 -13 -43 -8 -53 37 -6 30 -5 32 23 32 21 0 35 -8 46 -25z m-5050 0 c-5 -12 -10 -13 -20 -4 -19 15 -18 19 6 19 13 0 18 -5 14 -15z m6068 -72 c-16 -21 -39 -47 -51 -57 -21 -19 -21 -19 -21 6 0 27 43 73 75 81 11 3 22 5 23 6 2 0 -10 -16 -26 -36z m-183 -77 c25 -18 52 -35 60 -38 11 -3 -65 -56 -111 -76 -5 -2 -8 15 -8 38 0 34 -6 47 -30 70 -20 19 -26 30 -18 33 31 13 64 5 107 -27z m-8110 -107 l65 -125 -23 -31 c-22 -30 -25 -60 -10 -112 7 -25 -27 -23 -38 2 -15 31 -166 111 -199 104 -17 -3 -28 2 -39 19 -8 13 -34 33 -58 45 -70 36 -71 37 -32 76 20 20 35 45 35 58 0 21 12 27 108 58 59 19 112 34 117 33 6 -2 39 -59 74 -127z m7429 -11 c2 -18 21 -43 55 -73 l51 -45 -16 -28 c-23 -39 -14 -96 20 -122 13 -11 31 -20 38 -20 19 0 18 -5 -11 -34 -14 -14 -25 -32 -25 -41 0 -10 -10 -15 -33 -15 -20 0 -54 -13 -87 -34 l-55 -35 -8 39 c-6 28 -18 48 -43 66 -29 23 -34 32 -34 69 0 23 7 62 15 85 8 23 15 76 15 117 0 74 0 74 33 88 49 22 81 16 85 -17z m-5998 -37 c0 -210 105 -368 295 -446 53 -21 56 -24 36 -34 -15 -9 -27 -9 -42 -1 -13 7 -58 10 -122 7 -56 -3 -106 -5 -112 -5 -5 0 -56 2 -112 5 -67 3 -109 0 -124 -7 -15 -9 -24 -9 -32 -1 -6 6 -43 11 -82 11 l-70 0 80 39 c57 28 97 56 133 95 88 93 142 240 128 348 -6 39 -4 48 9 48 12 0 15 -13 15 -59z m-1254 -89 c-9 -8 -35 18 -31 31 2 7 10 32 17 57 l13 45 3 -64 c2 -35 1 -66 -2 -69z m7772 86 c32 -7 42 -14 40 -26 -2 -10 -12 -18 -23 -18 -11 -1 -25 -2 -31 -3 -25 -2 -163 -101 -169 -120 -5 -16 -15 -21 -40 -21 -31 0 -34 3 -40 41 -4 22 -3 45 2 50 26 26 190 116 203 112 8 -3 34 -10 58 -15z m-7718 -230 c12 -24 40 -64 61 -90 l39 -46 -43 5 c-30 4 -48 13 -64 32 -12 15 -40 36 -62 46 -41 18 -54 35 -27 35 8 0 24 14 36 30 12 17 25 30 29 30 4 0 18 -19 31 -42z m3428 -160 c24 -16 69 -40 99 -53 53 -21 55 -23 34 -34 -17 -9 -26 -10 -36 -1 -9 8 -48 10 -117 6 -125 -6 -111 -6 -235 0 -63 3 -110 1 -122 -5 -11 -6 -22 -7 -25 -2 -3 5 22 19 57 31 81 30 130 61 185 120 l44 47 36 -39 c20 -22 56 -53 80 -70z m941 54 c55 -55 117 -94 179 -112 23 -7 42 -16 42 -21 0 -13 -31 -19 -50 -9 -25 14 -203 13 -217 -1 -8 -8 -17 -8 -31 0 -25 13 -201 14 -221 2 -17 -11 -43 -3 -35 10 3 5 13 9 22 9 36 0 141 60 198 113 32 31 60 56 62 57 2 0 25 -22 51 -48z m-2008 2 c46 -48 104 -87 162 -109 45 -17 46 -19 27 -32 -14 -10 -25 -11 -39 -3 -26 13 -197 13 -223 -1 -14 -8 -23 -8 -31 0 -6 6 -50 11 -101 11 l-91 0 80 39 c48 24 98 58 125 85 24 25 47 46 50 46 3 0 22 -16 41 -36z m3004 -13 c56 -53 124 -92 194 -111 30 -8 40 -15 33 -22 -7 -7 -17 -6 -31 2 -15 7 -57 10 -124 7 -56 -3 -106 -5 -112 -5 -5 0 -56 2 -112 5 -66 3 -109 0 -123 -7 -16 -9 -25 -8 -36 1 -12 10 -6 15 35 29 67 22 157 78 190 117 14 17 28 32 30 32 2 1 27 -21 56 -48z m967 -7 c27 -25 81 -61 121 -79 l72 -34 -73 -1 c-40 0 -83 -5 -94 -11 -14 -8 -23 -8 -31 0 -15 15 -209 15 -224 0 -8 -8 -19 -7 -39 4 l-27 14 51 17 c54 18 169 96 178 121 9 21 12 20 66 -31z"/>
</g>
</svg>