<?xml version="1.0" standalone="no"?>
<!DOCTYPE svg PUBLIC "-//W3C//DTD SVG 20010904//EN"
 "http://www.w3.org/TR/2001/REC-SVG-20010904/DTD/svg10.dtd">
<svg version="1.0" xmlns="http://www.w3.org/2000/svg"
 width="1280.000000pt" height="645.000000pt" viewBox="0 0 1280.000000 645.000000"
 preserveAspectRatio="xMidYMid meet">
<metadata>
Created by potrace 1.15, written by Peter Selinger 2001-2017
</metadata>
<g transform="translate(0.000000,645.000000) scale(0.100000,-0.100000)"
fill="#000000" stroke="none">
<path d="M740 6443 c-30 -2 -59 -8 -64 -13 -7 -7 36 -42 69 -54 6 -2 7 -6 4
-10 -3 -3 -31 8 -63 25 -57 31 -58 31 -203 30 -131 -1 -280 -12 -358 -27 -75
-14 -95 -25 -111 -62 -8 -20 -13 -41 -10 -48 3 -7 45 -39 93 -73 170 -116 488
-380 672 -556 102 -99 148 -158 157 -204 6 -26 13 -33 48 -41 77 -20 121 -40
176 -82 62 -47 392 -322 640 -533 269 -230 1195 -963 1540 -1219 531 -394 596
-444 608 -468 12 -21 11 -30 -2 -61 -17 -43 -18 -43 -149 -22 -187 30 -587 39
-602 14 -7 -10 38 -16 245 -34 192 -16 392 -43 428 -56 25 -10 26 -14 11 -59
-12 -32 -13 -32 -58 -26 -205 28 -492 46 -754 46 l-206 1 -189 227 c-277 334
-614 744 -993 1207 -378 462 -500 608 -567 679 l-46 49 -101 -6 c-98 -6 -413
-56 -487 -77 -40 -12 -58 -34 -58 -73 0 -35 55 -143 427 -832 817 -1512 788
-1457 767 -1472 -21 -15 -202 -95 -272 -119 -52 -18 -54 -18 -67 -1 -7 10 -19
51 -25 90 -26 161 -55 219 -131 257 -51 26 -85 26 -100 -2 -18 -34 -3 -184 32
-331 17 -70 28 -134 26 -142 -3 -7 -78 -50 -166 -95 -152 -77 -161 -83 -196
-135 -45 -69 -82 -153 -79 -183 1 -15 25 -45 65 -82 l64 -58 -61 -59 -61 -59
18 -69 c81 -306 167 -532 225 -586 20 -19 28 -21 48 -11 77 35 195 269 272
542 37 131 36 130 90 130 25 0 54 -4 64 -10 21 -11 114 -126 263 -326 58 -78
122 -157 142 -175 76 -71 100 -95 112 -114 12 -19 13 -19 27 -2 20 25 30 151
17 207 -12 50 -15 249 -5 300 l7 32 81 -6 c45 -4 97 -9 118 -12 l36 -5 4 -482
c5 -530 7 -549 62 -576 22 -10 90 -14 300 -14 284 0 331 6 381 45 46 36 89
113 330 589 127 251 241 470 253 486 19 26 29 31 84 37 166 16 558 48 888 70
201 14 512 38 693 52 180 15 330 24 334 20 12 -11 -70 -255 -96 -287 -12 -15
-47 -24 -146 -40 -71 -11 -154 -25 -183 -30 -57 -11 -112 -50 -112 -79 0 -39
45 -37 474 16 110 13 219 24 244 24 l44 0 -26 -34 c-26 -34 -34 -80 -17 -91 5
-3 33 -10 63 -15 30 -6 57 -17 63 -27 27 -44 44 -53 105 -53 62 0 540 62 620
80 25 6 65 26 89 45 38 30 51 35 98 35 l54 0 -18 -28 c-55 -81 -67 -160 -34
-222 10 -19 29 -40 42 -47 13 -6 82 -40 152 -74 l128 -63 112 1 c179 2 301 28
465 98 49 20 80 26 135 27 64 0 87 -6 202 -52 72 -29 220 -86 330 -127 296
-111 316 -122 329 -184 7 -35 28 -39 103 -21 l62 15 195 -67 c107 -38 209 -78
226 -91 17 -12 47 -44 67 -69 l36 -47 96 7 c78 5 112 2 181 -14 107 -26 494
-153 547 -180 21 -11 66 -51 98 -87 l59 -67 70 6 c39 3 103 8 141 12 66 6 82
3 219 -41 l149 -47 126 17 c350 47 613 103 648 138 14 14 13 19 -7 53 -26 41
-81 70 -380 196 -637 270 -1275 571 -1888 891 -176 92 -251 136 -247 146 4 9
0 11 -11 7 -20 -8 -69 18 -124 66 -57 50 -96 71 -120 63 -13 -4 -25 1 -37 14
-10 12 -25 21 -35 21 -15 0 -90 40 -168 88 -24 15 -23 16 59 34 46 9 129 38
185 63 102 45 102 45 141 29 43 -18 97 -9 157 25 18 10 65 27 103 36 94 23
102 28 110 74 8 47 23 62 122 121 42 25 85 57 96 72 20 26 20 27 0 60 -10 18
-35 43 -54 55 -54 34 -69 51 -69 78 0 20 7 26 38 35 20 5 269 42 552 80 283
39 523 72 532 74 13 3 21 -8 33 -49 19 -66 91 -149 163 -188 68 -37 177 -51
314 -39 126 11 144 20 198 103 42 65 59 148 45 227 -8 51 -6 52 151 91 309 76
479 189 636 421 65 96 78 138 55 174 -19 28 -59 18 313 81 151 26 285 53 298
61 36 23 28 49 -20 69 -70 28 -144 30 -214 6 -34 -11 -93 -26 -131 -32 -58 -9
-74 -9 -107 5 -54 23 -71 20 -98 -14 -17 -21 -41 -36 -79 -47 -72 -21 -129
-27 -129 -15 0 19 -66 74 -200 167 -340 235 -568 357 -767 411 -116 31 -434
41 -405 12 5 -5 61 -13 125 -18 64 -5 138 -14 164 -20 228 -50 483 -182 843
-435 80 -56 167 -116 194 -132 46 -29 47 -31 26 -38 -13 -4 -71 -5 -129 -1
-159 9 -599 25 -743 27 -71 1 -128 3 -128 5 0 2 9 26 20 54 31 79 27 126 -18
196 -57 88 -158 152 -332 210 -81 28 -92 29 -251 27 -299 -3 -401 -26 -765
-171 -332 -133 -595 -222 -790 -267 -87 -20 -202 -47 -254 -60 -140 -35 -603
-110 -1175 -190 -535 -75 -715 -111 -715 -140 0 -13 -63 -11 -220 6 -109 11
-196 46 -210 84 -6 17 -15 22 -28 18 -11 -2 -51 11 -91 32 -60 30 -72 39 -69
58 3 19 -1 22 -24 19 -20 -2 -35 4 -51 22 -16 17 -35 26 -54 26 -34 0 -98 38
-168 102 -64 58 -85 68 -135 68 -34 0 -48 6 -70 30 -17 18 -38 30 -53 30 -26
0 -50 20 -25 20 7 1 0 12 -17 26 -19 16 -38 23 -52 19 -32 -8 -159 68 -167
100 -5 18 -13 25 -30 25 -13 0 -29 6 -35 14 -6 7 -26 16 -45 19 -34 5 -149 69
-448 250 -132 79 -169 106 -177 129 -9 24 -15 28 -48 28 -31 0 -69 19 -198 98
-115 71 -161 105 -165 121 -4 19 -13 24 -42 26 -52 3 -217 108 -230 148 -9 25
-14 28 -39 23 -23 -4 -48 7 -131 60 -64 41 -103 72 -103 82 0 12 -10 18 -32
20 -46 5 -367 211 -371 239 -2 15 -12 22 -41 26 -27 3 -109 51 -287 168 -348
227 -788 521 -1199 799 -192 131 -421 281 -507 333 -86 52 -154 97 -151 100
11 12 -9 28 -21 18 -9 -7 -30 -3 -72 14 -32 14 -68 24 -79 23 -11 -1 -45 -3
-75 -5z m4370 -2888 c0 -41 -11 -45 -29 -11 -15 26 -8 46 15 46 9 0 14 -11 14
-35z m528 -245 c65 -28 68 -45 6 -36 -47 6 -164 53 -164 66 0 12 105 -7 158
-30z m1131 -376 c42 -9 125 -31 184 -51 65 -20 119 -32 135 -29 17 3 45 -4 77
-19 48 -23 49 -24 15 -20 -19 3 -111 12 -205 20 -93 9 -192 20 -220 26 -58 11
-205 78 -205 92 0 12 114 2 219 -19z m-2623 -79 c38 -8 78 -15 89 -15 11 0 26
-4 34 -9 11 -7 11 -13 -3 -32 -16 -23 -22 -79 -9 -79 4 0 21 14 39 31 l31 30
8 -28 c10 -40 23 -53 58 -53 77 0 -3 -12 -299 -45 -175 -20 -427 -55 -559 -78
-132 -23 -271 -42 -310 -42 -63 0 -70 2 -70 20 0 15 24 33 100 72 55 29 124
60 153 70 52 17 54 16 180 -13 223 -51 417 -33 469 44 20 31 21 36 9 75 -8 23
-17 50 -21 61 -7 15 -5 17 12 12 11 -4 51 -13 89 -21z m5030 -529 c8 -20 -11
-53 -63 -109 -24 -26 -51 -64 -59 -83 -14 -33 -14 -38 2 -55 16 -18 16 -19
-13 -19 -17 0 -51 -14 -78 -32 l-48 -32 -121 11 c-79 7 -149 7 -201 1 -116
-14 -190 -6 -250 27 l-50 27 -155 -7 -155 -6 -80 53 -80 53 50 8 c28 4 289 41
580 82 292 40 559 78 595 83 97 14 120 14 126 -2z m-3175 -501 c54 -25 105
-45 114 -45 8 0 15 -3 15 -8 0 -8 -350 -55 -357 -48 -7 6 33 80 62 115 15 17
36 31 47 31 12 0 65 -20 119 -45z m-324 -272 c4 -11 -26 -27 -35 -19 -2 3 -2
12 2 21 6 18 27 16 33 -2z"/>
<path d="M4130 2701 c0 -6 5 -13 10 -16 6 -3 10 1 10 9 0 9 -4 16 -10 16 -5 0
-10 -4 -10 -9z"/>
<path d="M980 5355 c0 -19 36 -39 45 -25 8 13 -13 40 -31 40 -8 0 -14 -7 -14
-15z"/>
<path d="M7812 3542 c-13 -4 -31 -19 -40 -34 -16 -26 -15 -28 21 -80 21 -29
63 -81 95 -116 l57 -63 71 16 c72 17 134 46 134 65 0 16 -104 115 -174 165
-67 48 -116 62 -164 47z"/>
<path d="M8735 3430 c-8 -13 20 -24 41 -16 20 8 9 26 -16 26 -10 0 -22 -5 -25
-10z"/>
<path d="M5820 3391 c0 -14 18 -23 31 -15 8 4 7 9 -2 15 -18 11 -29 11 -29 0z"/>
<path d="M6493 3084 c-3 -9 0 -20 7 -24 18 -11 54 4 58 24 5 22 -56 23 -65 0z"/>
</g>
</svg>
