<?xml version="1.0" standalone="no"?>
<!DOCTYPE svg PUBLIC "-//W3C//DTD SVG 20010904//EN"
 "http://www.w3.org/TR/2001/REC-SVG-20010904/DTD/svg10.dtd">
<svg version="1.0" xmlns="http://www.w3.org/2000/svg"
 width="1280.000000pt" height="1188.000000pt" viewBox="0 0 1280.000000 1188.000000"
 preserveAspectRatio="xMidYMid meet">
<metadata>
Created by potrace 1.15, written by Peter Selinger 2001-2017
</metadata>
<g transform="translate(0.000000,1188.000000) scale(0.100000,-0.100000)"
fill="#000000" stroke="none">
<path d="M9208 10221 c-5 -910 -8 -2014 -8 -2453 0 -439 -1 -798 -3 -798 -10
0 -111 41 -120 49 -35 29 -142 33 -522 22 -427 -12 -535 -26 -599 -74 -19 -15
-38 -27 -41 -27 -3 0 -22 12 -40 26 -33 25 -56 30 -217 50 -43 5 -48 8 -48 30
0 17 8 27 24 33 13 5 26 17 29 25 5 12 21 16 65 16 33 0 73 3 90 6 l31 6 3
117 3 116 25 -2 c14 0 77 -5 140 -11 144 -12 201 -7 207 19 5 18 21 19 334 19
l329 0 0 120 0 120 24 0 c28 0 41 -27 31 -62 -6 -22 -5 -22 6 -3 7 11 13 29
14 40 1 14 10 21 28 23 l27 3 0 -83 c0 -93 15 -128 55 -128 31 0 39 36 30 138
-11 114 -9 112 -120 112 -57 0 -95 4 -95 10 0 6 -31 10 -74 10 -53 0 -77 4
-86 15 -9 11 -34 15 -95 15 -75 0 -83 -2 -88 -20 -5 -20 -12 -20 -144 -18
-135 3 -138 4 -141 26 -3 18 -10 22 -37 22 -27 0 -34 -5 -39 -25 l-6 -25 -359
2 -359 3 -22 -27 c-23 -30 -50 -37 -50 -13 0 8 -4 15 -9 15 -5 0 -14 -7 -21
-15 -11 -13 -57 -15 -299 -16 -350 -1 -455 -8 -473 -31 -12 -15 -73 -17 -608
-27 -327 -6 -661 -11 -742 -11 l-148 0 0 -45 0 -45 99 0 c55 0 101 3 103 8 3
6 454 1 1046 -14 190 -5 252 -9 252 -19 0 -16 172 -25 496 -25 l253 0 26 -25
c24 -25 25 -30 25 -155 0 -76 4 -130 10 -130 18 0 60 -51 60 -74 0 -23 -1 -23
-167 -30 -214 -10 -282 -27 -371 -93 -38 -29 -75 -96 -67 -123 15 -46 68 -101
127 -132 l63 -33 -240 -5 c-323 -7 -328 -10 -362 -179 l-18 -91 -115 0 c-63 0
-266 -4 -450 -10 -184 -5 -585 -14 -890 -20 -1032 -18 -1915 -41 -1997 -52
-94 -11 -161 -47 -188 -97 -8 -17 -24 -86 -34 -153 -29 -181 -40 -232 -76
-348 -45 -141 -56 -197 -165 -845 -11 -66 -32 -190 -47 -276 l-27 -156 -29 39
-28 40 -2 193 c-2 235 4 224 -138 225 -134 0 -129 8 -129 -213 0 -112 4 -185
12 -202 11 -25 13 -25 118 -25 103 0 107 -1 118 -24 6 -13 25 -40 42 -59 27
-31 30 -41 25 -71 -6 -29 -12 -36 -39 -41 -17 -4 -59 -18 -93 -31 -33 -13
-126 -44 -205 -68 -78 -24 -300 -92 -493 -150 -192 -59 -485 -143 -650 -187
-378 -101 -477 -131 -592 -175 -136 -52 -152 -65 -183 -154 -14 -42 -37 -91
-52 -110 -38 -52 -49 -117 -47 -270 l2 -136 -37 -56 -37 -55 14 -54 13 -54
110 -5 c60 -3 115 -9 121 -13 10 -6 5 -23 -18 -69 -31 -62 -31 -66 -2 -106
l16 -24 -35 7 -36 7 -22 -67 -22 -67 31 -38 c17 -21 31 -42 31 -45 0 -4 -18
-5 -40 -3 l-39 3 -16 -73 c-16 -70 -16 -75 2 -94 17 -19 17 -20 -1 -33 -10 -8
-24 -11 -31 -9 -10 4 -15 -10 -20 -53 -3 -32 -8 -70 -10 -85 -3 -21 2 -32 27
-51 35 -28 30 -47 -13 -47 l-29 0 0 -85 0 -84 35 -28 c19 -15 35 -31 35 -35 0
-5 -17 -8 -37 -8 l-38 0 3 -90 c3 -89 4 -91 38 -118 44 -35 44 -52 -2 -52 -29
0 -34 -3 -30 -17 3 -10 8 -50 12 -88 6 -70 7 -72 48 -98 l41 -27 -39 0 c-26 0
-37 -4 -33 -12 2 -7 10 -39 17 -71 12 -52 17 -60 52 -78 21 -11 38 -24 38 -29
0 -14 -39 -32 -52 -24 -7 5 -9 2 -6 -7 3 -8 14 -40 24 -72 14 -47 23 -59 43
-63 53 -12 62 -16 58 -27 -2 -7 -13 -16 -25 -22 -24 -11 -23 -17 9 -92 15 -35
23 -43 44 -43 29 0 31 -7 10 -30 -13 -14 -10 -21 23 -62 30 -38 43 -47 70 -48
17 0 32 -5 32 -11 0 -20 66 -37 155 -40 90 -2 203 -29 235 -55 9 -7 21 -10 27
-6 7 4 53 3 104 -3 163 -18 571 20 651 61 52 27 113 80 158 140 24 30 48 54
55 54 6 0 26 18 44 40 24 30 30 45 25 65 -5 22 -3 25 20 25 21 0 30 9 52 52
22 43 24 53 12 62 -21 17 -10 44 20 51 22 4 32 18 54 70 25 62 26 65 7 65 -19
0 -25 17 -11 35 12 17 64 41 117 55 28 7 190 52 360 100 171 49 353 99 405
113 l95 25 720 5 720 4 580 -309 c319 -171 587 -318 596 -328 8 -10 35 -28 59
-40 l44 -22 -24 -18 c-13 -10 -30 -16 -37 -13 -17 7 -17 10 15 -77 27 -74 28
-75 72 -86 54 -13 60 -27 20 -44 -16 -7 -30 -14 -30 -16 0 -2 12 -33 27 -69
24 -58 29 -65 55 -65 32 0 32 0 17 -33 -9 -21 -6 -32 23 -76 32 -49 35 -51 73
-49 34 3 40 0 43 -18 4 -28 36 -35 172 -40 108 -4 250 -39 258 -63 2 -7 16 -9
35 -6 18 4 59 2 92 -3 73 -12 372 1 535 23 63 9 140 25 170 37 64 24 172 107
225 173 21 25 43 45 49 45 6 0 29 23 50 51 29 40 35 53 26 64 -15 17 -5 35 19
35 12 0 29 21 51 61 29 55 31 63 16 71 -23 13 -4 46 30 50 22 3 30 14 54 76
26 67 27 72 9 72 -29 0 -23 37 9 57 15 9 28 18 30 19 2 1 12 34 22 73 18 69
18 71 -1 71 -28 0 -23 23 9 47 24 17 31 33 42 94 7 41 15 80 17 87 3 8 -4 12
-21 12 -41 0 -36 42 8 70 l35 21 3 94 c3 93 2 95 -19 95 -29 0 -31 30 -3 55
13 12 20 31 20 57 0 21 3 38 8 38 4 0 115 -13 248 -29 l241 -28 104 18 c57 10
156 27 219 38 63 11 156 27 205 36 50 9 140 24 200 35 112 20 322 56 520 91
61 11 187 33 280 49 94 16 222 39 285 50 137 24 140 24 140 6 0 -8 17 -28 38
-45 l37 -30 -35 -1 -36 0 11 -80 c9 -77 12 -82 45 -103 l35 -22 -36 -5 -35 -5
18 -60 c16 -54 21 -62 53 -74 19 -7 35 -15 35 -19 0 -12 -40 -33 -50 -27 -15
9 -12 -8 11 -68 19 -51 24 -55 60 -61 45 -7 50 -22 14 -36 -30 -11 -30 -8 -5
-64 16 -37 24 -46 45 -46 29 0 31 -7 11 -29 -13 -14 -11 -21 17 -58 26 -34 38
-42 65 -43 20 0 32 -5 32 -14 0 -21 26 -28 145 -36 61 -4 124 -13 140 -20 17
-8 32 -14 35 -14 3 -1 10 -5 16 -9 7 -4 23 -6 35 -6 13 1 65 -2 114 -6 88 -7
333 12 456 35 72 14 140 54 203 120 30 32 61 60 68 63 8 2 27 23 42 46 23 33
26 44 17 55 -10 12 -8 15 11 18 30 4 80 94 60 107 -17 10 -4 41 17 41 10 0 27
21 44 54 26 54 26 55 6 61 -25 8 -20 26 11 42 18 9 28 26 37 65 16 68 16 68
-2 68 -23 0 -18 15 9 28 19 9 24 20 30 72 4 34 10 68 13 76 3 8 -1 14 -10 14
-29 0 -31 23 -3 47 24 20 28 33 33 98 5 67 4 75 -11 69 -20 -8 -21 12 -2 52 8
16 17 57 20 91 6 54 5 62 -8 57 -23 -9 -33 26 -13 41 26 19 18 155 -9 155 -10
0 -13 14 -11 53 1 28 -1 64 -6 80 l-7 27 115 0 c160 0 192 17 343 178 l112
120 0 110 0 111 -197 -4 c-109 -3 -282 -7 -385 -10 -158 -4 -187 -2 -192 10
-5 13 23 15 201 15 l206 0 118 63 c117 61 119 62 119 97 0 19 -5 127 -10 240
-5 113 -14 315 -20 450 -5 135 -12 278 -16 318 l-6 72 36 0 c61 0 128 41 158
97 40 74 61 189 56 297 -8 138 -30 198 -107 278 -60 64 -66 68 -107 68 l-44 0
0 54 c0 46 5 60 26 83 59 62 69 102 72 296 4 188 -2 225 -40 252 -20 13 -20
14 2 37 66 68 91 233 51 339 -25 65 -66 108 -113 118 -32 7 -33 8 -47 85 -12
71 -18 83 -55 120 -65 65 -97 76 -228 76 l-113 1 34 18 c37 20 60 54 61 90 1
58 -117 203 -200 246 -93 48 -545 107 -653 85 -29 -5 -74 -15 -102 -20 -27 -6
-90 -23 -140 -40 -49 -16 -106 -32 -126 -35 -21 -3 -53 -16 -73 -30 l-35 -24
-68 39 c-122 72 -154 75 -678 73 -414 -2 -472 -4 -580 -23 -138 -23 -179 -35
-217 -62 -16 -11 -36 -17 -47 -13 -16 5 -19 20 -25 118 -3 62 -9 958 -12 1992
-4 1034 -9 2089 -13 2345 -4 347 -8 44 -13 -1189z m-2214 -7001 c-90 -106
-103 -116 -76 -64 18 35 131 154 147 154 4 0 -28 -41 -71 -90z m-6681 -487
c-7 -2 -19 -2 -25 0 -7 3 -2 5 12 5 14 0 19 -2 13 -5z m4927 -80 c-8 -3 -24
-10 -35 -15 -20 -9 -20 -9 -1 6 11 9 27 16 35 15 14 0 14 -1 1 -6z m-3014
-1229 c-55 -13 -101 -23 -103 -21 -2 2 -1 11 3 20 6 16 45 22 154 24 37 1 27
-3 -54 -23z m3292 -29 c8 -3 12 -27 12 -74 l0 -70 50 -42 c27 -23 47 -46 44
-50 -16 -26 -83 -1 -324 121 l-255 130 230 -6 c127 -3 236 -7 243 -9z"/>
</g>
</svg>
