<?xml version="1.0" standalone="no"?>
<!DOCTYPE svg PUBLIC "-//W3C//DTD SVG 20010904//EN"
 "http://www.w3.org/TR/2001/REC-SVG-20010904/DTD/svg10.dtd">
<svg version="1.0" xmlns="http://www.w3.org/2000/svg"
 width="1280.000000pt" height="676.000000pt" viewBox="0 0 1280.000000 676.000000"
 preserveAspectRatio="xMidYMid meet">
<metadata>
Created by potrace 1.15, written by Peter Selinger 2001-2017
</metadata>
<g transform="translate(0.000000,676.000000) scale(0.100000,-0.100000)"
fill="#000000" stroke="none">
<path d="M5500 6627 c0 -74 -3 -256 -7 -406 l-6 -272 -29 -6 c-26 -5 -28 -9
-28 -52 0 -38 4 -48 23 -56 19 -8 22 -19 25 -68 l3 -59 -59 3 c-58 4 -112 -16
-112 -42 0 -6 27 -22 61 -37 58 -25 60 -27 55 -55 -3 -16 -6 -44 -6 -62 l0
-33 -65 -7 -65 -7 0 -38 0 -38 -42 5 c-123 12 -229 18 -233 14 -13 -12 -4 -60
13 -65 9 -2 51 -14 92 -26 41 -12 78 -25 82 -29 4 -3 16 -51 26 -105 29 -147
6 -203 -85 -209 -26 -2 -27 0 -39 76 -7 43 -14 80 -16 82 -2 1 -46 8 -98 14
-89 10 -98 9 -147 -11 -58 -24 -49 -5 -86 -188 l-13 -65 -461 -3 -461 -2 -6
-31 c-3 -17 -6 -42 -6 -54 0 -26 -41 -21 505 -61 209 -15 384 -30 388 -34 7
-6 -17 -130 -130 -665 -19 -93 -37 -172 -39 -174 -4 -4 -364 17 -411 25 -24 4
-33 10 -33 24 0 11 -6 20 -14 20 -7 0 -218 13 -467 29 -1148 75 -1291 83
-1299 75 -4 -5 -10 -18 -14 -29 -5 -18 7 -25 100 -59 93 -35 105 -42 100 -60
-2 -12 -43 -201 -91 -421 -47 -220 -90 -409 -94 -421 -8 -18 -21 -22 -93 -28
-45 -4 -107 -9 -136 -13 l-53 -6 3 -46 3 -46 144 -33 c80 -18 146 -33 147 -35
2 -2 -57 -229 -61 -234 -1 -2 -83 -13 -182 -25 l-182 -22 -11 -86 c-15 -112
-18 -120 -40 -120 -20 0 -29 24 -63 160 l-13 55 -50 9 c-27 4 -54 10 -60 11
-6 2 -17 33 -25 70 l-13 66 -50 -3 -51 -3 -14 -72 -15 -72 -51 -6 -50 -7 -40
-123 -39 -124 -46 -5 c-25 -3 -103 -11 -175 -16 -71 -6 -148 -13 -171 -16
l-41 -5 23 -136 c18 -105 21 -146 14 -177 -5 -23 -23 -140 -40 -261 -16 -121
-32 -235 -35 -253 l-6 -32 -419 0 c-231 0 -420 -2 -420 -5 0 -15 134 -541 139
-547 12 -14 265 -65 351 -72 47 -4 269 -22 495 -42 797 -67 1278 -108 2480
-209 231 -19 580 -49 775 -65 1065 -90 1085 -92 2308 -195 905 -77 1017 -85
1297 -100 965 -51 2616 -138 2939 -155 208 -12 379 -20 381 -18 1 2 44 73 95
158 153 252 521 714 921 1155 289 318 629 720 618 728 -4 3 -866 -4 -1954 -17
-275 -3 -595 -9 -711 -12 l-211 -7 -15 44 -15 44 -80 3 -81 3 -26 62 c-116
277 -134 327 -123 335 7 6 167 20 357 32 244 16 349 26 359 35 9 9 11 24 7 49
l-7 36 -82 -5 c-112 -7 -562 -25 -636 -25 -58 0 -60 1 -78 37 -15 31 -31 42
-108 75 l-90 39 -250 -6 c-137 -3 -265 -8 -282 -11 -31 -5 -33 -7 -33 -47 0
-23 -3 -53 -7 -66 l-6 -24 -211 7 c-116 3 -302 9 -413 12 l-202 7 -146 263
c-80 145 -145 269 -145 275 0 6 16 63 36 125 32 97 40 114 58 114 51 1 48 16
-11 68 -54 46 -65 51 -143 66 -47 8 -272 27 -500 41 -228 14 -434 28 -456 31
l-42 5 36 137 35 137 -129 511 -129 511 -180 23 c-252 31 -232 22 -268 109
l-31 73 26 47 c23 41 24 48 12 67 -14 21 -13 22 58 39 40 10 76 20 79 24 15
14 -4 67 -31 86 -26 19 -37 20 -189 12 -116 -6 -166 -5 -176 3 -15 12 -49 184
-41 206 3 9 20 14 46 14 35 0 40 3 40 24 0 25 -21 36 -75 36 -70 1 -99 30 -56
57 22 14 33 83 24 148 -5 39 -9 45 -29 45 l-24 0 0 393 c0 369 -1 395 -18 410
-10 10 -22 17 -25 17 -4 0 -7 -60 -7 -133z m-1835 -2836 l150 -27 -2 -40 c-9
-142 -44 -619 -49 -664 -7 -55 -7 -53 -54 145 -41 173 -59 227 -134 402 -47
112 -86 205 -86 208 0 8 15 6 175 -24z m845 -50 c0 -55 -28 -131 -72 -195 -26
-38 -46 -72 -43 -76 2 -4 38 -17 79 -29 54 -16 77 -28 81 -42 4 -11 -7 -61
-25 -113 l-31 -94 -52 -6 c-29 -3 -79 -8 -113 -12 l-61 -6 -74 -149 c-71 -144
-75 -149 -109 -155 -19 -3 -43 -8 -52 -10 -21 -6 -20 -7 -53 451 -14 193 -27
374 -31 403 l-5 52 280 0 c271 0 281 -1 281 -19z"/>
</g>
</svg>
